<?xml version="1.0" encoding="UTF-8"?>
<svg width="140px" height="104px" viewBox="0 0 140 104" version="1.1" xmlns="http://www.w3.org/2000/svg" xmlns:xlink="http://www.w3.org/1999/xlink">
    <!-- Generator: Sketch 62 (91390) - https://sketch.com -->
    <title>illustration / segment</title>
    <desc>Created with Sketch.</desc>
    <g id="eCom" stroke="none" stroke-width="1" fill="none" fill-rule="evenodd">
        <g id="Dialog_syncing" transform="translate(-202.000000, -75.000000)">
            <g id="illustration-/-eCom" transform="translate(202.000000, 57.000000)">
                <g id="Artboard-3-copy-2" transform="translate(1.521739, 19.782609)">
                    <path d="M97.0369416,100.68703 L97.0369416,98.1204868 C97.0353137,96.8747711 96.0241677,95.8653242 94.7763553,95.863699 L42.0204751,95.863699 C40.7726627,95.8653242 39.7615167,96.8747711 39.7598888,98.1204868 L39.7598888,100.68703 L97.0369416,100.68703 L97.0369416,100.68703 Z" id="Path" fill="#FFFFFF" fill-rule="nonzero"></path>
                    <path d="M97.0369416,100.68703 L97.0369416,97.9541817 C97.0353137,96.6277471 96.0241677,95.5528907 94.7763553,95.5511602 L42.0204751,95.5511602 C40.7726627,95.5528907 39.7615167,96.6277471 39.7598888,97.9541817 L39.7598888,100.68703 L97.0369416,100.68703 L97.0369416,100.68703 Z" id="Path" stroke="#472F92" stroke-width="2.4" stroke-linecap="round" stroke-linejoin="round"></path>
                    <rect id="Rectangle" fill="#FFFFFF" fill-rule="nonzero" x="54.8327974" y="83.8053721" width="27.7341519" height="11.4554106"></rect>
                    <rect id="Rectangle" fill="#D9D9D9" fill-rule="nonzero" style="mix-blend-mode: multiply;" x="54.8327974" y="83.8053721" width="27.7341519" height="3.01458173"></rect>
                    <rect id="Rectangle" stroke="#472F92" stroke-width="2.4" stroke-linecap="round" stroke-linejoin="round" x="54.8327974" y="83.8053721" width="27.7341519" height="11.4554106"></rect>
                    <path d="M5.39365704,69.9382961 L5.39365704,80.5369781 C5.39365704,81.4038101 5.73842378,82.2351389 6.35211253,82.8480816 C6.96580127,83.4610244 7.79814182,83.8053721 8.66602875,83.8053721 L128.733718,83.8053721 C130.540999,83.8053721 132.00609,82.3420623 132.00609,80.5369781 L132.00609,69.9382961 L5.39365704,69.9382961 Z" id="Path" fill="#D9D9D9" fill-rule="nonzero"></path>
                    <rect id="Rectangle" fill="#FFFFFF" fill-rule="nonzero" x="5.39365704" y="6.63207981" width="126.612433" height="63.3062163"></rect>
                    <path d="M5.39365704,69.9382961 L5.39365704,80.5369781 C5.39365704,81.4038101 5.73842378,82.2351389 6.35211253,82.8480816 C6.96580127,83.4610244 7.79814182,83.8053721 8.66602875,83.8053721 L128.733718,83.8053721 C130.540999,83.8053721 132.00609,82.3420623 132.00609,80.5369781 L132.00609,69.9382961 L5.39365704,69.9382961 Z" id="Path" stroke="#472F92" stroke-width="2.4" stroke-linecap="round" stroke-linejoin="round"></path>
                    <rect id="Rectangle" stroke="#472F92" stroke-width="2.4" stroke-linecap="round" stroke-linejoin="round" x="5.39365704" y="6.63207981" width="126.612433" height="63.3062163"></rect>
                    <path d="M132.00609,6.63207981 L132.00609,3.38782888 C132.00609,2.48960182 131.662451,1.6278863 131.048678,0.99245717 C130.434904,0.357028044 129.602116,0 128.733717,0 L8.66603002,0 C7.79763115,0 6.96484272,0.357028044 6.35106903,0.99245717 C5.73729533,1.6278863 5.39365704,2.48960182 5.39365704,3.38782888 L5.39365704,6.63207981 L132.00609,6.63207981 Z" id="Path" stroke="#472F92" stroke-width="2.4" stroke-linecap="round" stroke-linejoin="round"></path>
                    <path d="M5.39365704,16.2787413 L5.39365704,34.0186468 C7.00138642,34.6510251 8.71246838,34.9734238 10.4380712,34.9691481 C14.369052,34.9691481 17.8747427,33.3452812 20.1488638,30.82165 C22.4229849,33.3452812 25.9286756,34.9691481 29.8596564,34.9691481 C33.7906372,34.9691481 37.2963278,33.3452812 39.570449,30.82165 C41.8416167,33.3452812 45.3502608,34.9691481 49.2782882,34.9691481 C53.2063156,34.9691481 56.7149596,33.3452812 58.9890808,30.82165 C61.2632019,33.3452812 64.7688925,34.9691481 68.6998734,34.9691481 C72.6308542,34.9691481 76.1365448,33.3452812 78.410666,30.82165 C80.6847871,33.3452812 84.1904777,34.9691481 88.1214586,34.9691481 C92.0524394,34.9691481 95.55813,33.3452812 97.8322511,30.82165 C100.103419,33.3452812 103.612063,34.9691481 107.54009,34.9691481 C111.468118,34.9691481 114.976762,33.3452812 117.250883,30.82165 C119.525004,33.3452812 123.030695,34.9691481 126.961676,34.9691481 C128.687278,34.9734238 130.39836,34.6510251 132.00609,34.0186468 L132.00609,16.2787413 L5.39365704,16.2787413 Z" id="Path" fill="#C8D2D6" fill-rule="nonzero" style="mix-blend-mode: multiply;"></path>
                    <path d="M10.2169878,28.3370683 L10.2169878,28.3370683 C15.5449493,28.3370683 19.8636493,24.5585129 19.8636493,19.8962394 L0.570326273,19.8962394 C0.570326273,24.5438332 4.88902633,28.3370683 10.2169878,28.3370683 Z" id="Path" fill="#A1D4DB" fill-rule="nonzero"></path>
                    <path d="M48.8021668,28.3370683 L48.8021668,28.3370683 C54.1309386,28.3370683 58.4502955,24.5585129 58.4502955,19.8962394 L39.1569724,19.8962394 C39.1569724,24.5438332 43.4763293,28.3370683 48.8021668,28.3370683 Z" id="Path" fill="#A1D4DB" fill-rule="nonzero"></path>
                    <path d="M29.5103109,28.3370683 L29.5103109,28.3370683 C34.8382724,28.3370683 39.1569724,24.5585129 39.1569724,19.8962394 L19.8636493,19.8962394 C19.8636493,24.5438332 24.1823494,28.3370683 29.5103109,28.3370683 Z" id="Path" fill="#F2FDFF" fill-rule="nonzero"></path>
                    <path d="M68.6925442,28.3370683 L68.6925442,28.3370683 C74.0164577,28.3370683 78.3465349,24.5504187 78.3465349,19.8962394 L59.0532118,19.8962394 C59.0532118,24.5504187 63.3686307,28.3370683 68.6925442,28.3370683 Z" id="Path" fill="#F2FDFF" fill-rule="nonzero"></path>
                    <path d="M87.9858561,28.3370683 L87.9858561,28.3370683 C93.3178717,28.3370683 97.639858,24.5585129 97.639858,19.8962394 L78.3465349,19.8962394 C78.3465349,24.5438332 82.6538405,28.3370683 87.9858561,28.3370683 Z" id="Path" fill="#A1D4DB" fill-rule="nonzero"></path>
                    <path d="M107.285052,28.3370683 L107.285052,28.3370683 C112.613824,28.3370683 116.933181,24.5585129 116.933181,19.8962394 L97.639858,19.8962394 C97.639858,24.5438332 101.959215,28.3370683 107.285052,28.3370683 Z" id="Path" fill="#F2FDFF" fill-rule="nonzero"></path>
                    <path d="M126.579843,28.3370683 L126.579843,28.3370683 C131.907804,28.3370683 136.226504,24.5585129 136.226504,19.8962394 L116.933181,19.8962394 C116.933181,24.5438332 121.251881,28.3370683 126.579843,28.3370683 Z" id="Path" fill="#A1D4DB" fill-rule="nonzero"></path>
                    <path d="M10.2169878,28.3370683 L10.2169878,28.3370683 C15.5449493,28.3370683 19.8636493,24.5585129 19.8636493,19.8962394 L0.570326273,19.8962394 C0.570326273,24.5438332 4.88902633,28.3370683 10.2169878,28.3370683 Z" id="Path" stroke="#472F92" stroke-width="2.4" stroke-linecap="round" stroke-linejoin="round"></path>
                    <path d="M48.8021668,28.3370683 L48.8021668,28.3370683 C54.1309386,28.3370683 58.4502955,24.5585129 58.4502955,19.8962394 L39.1569724,19.8962394 C39.1569724,24.5438332 43.4763293,28.3370683 48.8021668,28.3370683 Z" id="Path" stroke="#472F92" stroke-width="2.4" stroke-linecap="round" stroke-linejoin="round"></path>
                    <path d="M29.5103109,28.3370683 L29.5103109,28.3370683 C34.8382724,28.3370683 39.1569724,24.5585129 39.1569724,19.8962394 L19.8636493,19.8962394 C19.8636493,24.5438332 24.1823494,28.3370683 29.5103109,28.3370683 Z" id="Path" stroke="#472F92" stroke-width="2.4" stroke-linecap="round" stroke-linejoin="round"></path>
                    <path d="M68.6925442,28.3370683 L68.6925442,28.3370683 C74.0164577,28.3370683 78.3465349,24.5504187 78.3465349,19.8962394 L59.0532118,19.8962394 C59.0532118,24.5504187 63.3686307,28.3370683 68.6925442,28.3370683 Z" id="Path" stroke="#472F92" stroke-width="2.4" stroke-linecap="round" stroke-linejoin="round"></path>
                    <path d="M87.9858561,28.3370683 L87.9858561,28.3370683 C93.3178717,28.3370683 97.639858,24.5585129 97.639858,19.8962394 L78.3465349,19.8962394 C78.3465349,24.5438332 82.6538405,28.3370683 87.9858561,28.3370683 Z" id="Path" stroke="#472F92" stroke-width="2.4" stroke-linecap="round" stroke-linejoin="round"></path>
                    <path d="M107.285052,28.3370683 L107.285052,28.3370683 C112.613824,28.3370683 116.933181,24.5585129 116.933181,19.8962394 L97.639858,19.8962394 C97.639858,24.5438332 101.959215,28.3370683 107.285052,28.3370683 Z" id="Path" stroke="#472F92" stroke-width="2.4" stroke-linecap="round" stroke-linejoin="round"></path>
                    <path d="M126.579843,28.3370683 L126.579843,28.3370683 C131.907804,28.3370683 136.226504,24.5585129 136.226504,19.8962394 L116.933181,19.8962394 C116.933181,24.5438332 121.251881,28.3370683 126.579843,28.3370683 Z" id="Path" stroke="#472F92" stroke-width="2.4" stroke-linecap="round" stroke-linejoin="round"></path>
                    <polygon id="Path" fill="#A1D4DB" fill-rule="nonzero" points="5.26906685 6.63207981 0.570326273 19.8962394 20.1266035 19.8962394 23.4811474 6.63207981"></polygon>
                    <polygon id="Path" fill="#A1D4DB" fill-rule="nonzero" points="41.1375273 6.63207981 39.1569724 19.8962394 58.3920517 19.8962394 59.0532118 6.63207981"></polygon>
                    <polygon id="Path" fill="#FFFFFF" fill-rule="nonzero" points="23.2392494 6.63207981 19.8636493 19.8962394 39.5426793 19.8962394 41.5686378 6.63207981"></polygon>
                    <polygon id="Path" fill="#FFFFFF" fill-rule="nonzero" points="59.7162731 6.63207981 59.0532118 19.8962394 78.3465349 19.8962394 77.6834736 6.63207981"></polygon>
                    <polygon id="Path" fill="#A1D4DB" fill-rule="nonzero" points="77.7436186 6.63207981 78.4046815 19.8962394 97.639858 19.8962394 95.6595942 6.63207981"></polygon>
                    <polygon id="Path" fill="#FFFFFF" fill-rule="nonzero" points="95.2281926 6.63207981 97.2544305 19.8962394 116.933181 19.8962394 113.557116 6.63207981"></polygon>
                    <polygon id="Path" fill="#A1D4DB" fill-rule="nonzero" points="113.918599 6.63207981 117.273143 19.8962394 136.82942 19.8962394 132.13068 6.63207981"></polygon>
                    <polygon id="Path" stroke="#472F92" stroke-width="2.4" stroke-linecap="round" stroke-linejoin="round" points="5.26906685 6.63207981 0.570326273 19.8962394 20.1266035 19.8962394 23.4811474 6.63207981"></polygon>
                    <polygon id="Path" stroke="#472F92" stroke-width="2.4" stroke-linecap="round" stroke-linejoin="round" points="41.1375273 6.63207981 39.1569724 19.8962394 58.3920517 19.8962394 59.0532118 6.63207981"></polygon>
                    <polygon id="Path" stroke="#472F92" stroke-width="2.4" stroke-linecap="round" stroke-linejoin="round" points="23.2392494 6.63207981 19.8636493 19.8962394 39.5426793 19.8962394 41.5686378 6.63207981"></polygon>
                    <polygon id="Path" stroke="#472F92" stroke-width="2.4" stroke-linecap="round" stroke-linejoin="round" points="59.7162731 6.63207981 59.0532118 19.8962394 78.3465349 19.8962394 77.6834736 6.63207981"></polygon>
                    <polygon id="Path" stroke="#472F92" stroke-width="2.4" stroke-linecap="round" stroke-linejoin="round" points="77.7436186 6.63207981 78.4046815 19.8962394 97.639858 19.8962394 95.6595942 6.63207981"></polygon>
                    <polygon id="Path" stroke="#472F92" stroke-width="2.4" stroke-linecap="round" stroke-linejoin="round" points="95.2281926 6.63207981 97.2544305 19.8962394 116.933181 19.8962394 113.557116 6.63207981"></polygon>
                    <polygon id="Path" stroke="#472F92" stroke-width="2.4" stroke-linecap="round" stroke-linejoin="round" points="113.918599 6.63207981 117.273143 19.8962394 136.82942 19.8962394 132.13068 6.63207981"></polygon>
                </g>
                <g id="Group" transform="translate(60.869565, 60.869565)">
                    <path d="M2.67414579,2.67408444 C-0.891511681,6.23998689 -0.891511681,12.021168 2.67414579,15.5866139 C6.239575,19.1522881 12.020729,19.1522881 15.5866147,15.5866139 C19.152044,12.021168 19.1522722,6.23975863 15.5866147,2.67408444 C12.0209573,-0.891361481 6.239575,-0.891361481 2.67414579,2.67408444" id="Fill-11" fill="#3B2C78"></path>
                    <path d="M9.94553813,4.73429952 C9.82352735,4.73429952 9.70128238,4.68378154 9.60831062,4.58223531 C9.42189875,4.37914286 9.42189875,4.05001061 9.60831062,3.84717329 L10.3457616,3.04347826 L9.60831062,2.23978323 C9.42189875,2.03694592 9.42189875,1.70781367 9.60831062,1.50497635 C9.79425413,1.30188389 10.096588,1.30188389 10.2827656,1.50497635 L11.3576783,2.67607482 C11.5440902,2.87891214 11.5440902,3.20804439 11.3576783,3.4108817 L10.2827656,4.58223531 C10.1897939,4.68378154 10.0675489,4.73429952 9.94553813,4.73429952" id="Fill-13" fill="#3CAEB3"></path>
                    <path d="M8.31491639,16.9082126 C8.19290913,16.9082126 8.07066768,16.8574356 7.97769861,16.7558817 L6.90281695,15.5852052 C6.71664463,15.3820974 6.71664463,15.0531955 6.90281695,14.8500877 L7.97793279,13.6789009 C8.16410511,13.4757931 8.46619603,13.4757931 8.65236835,13.6789009 C8.83877484,13.8817535 8.83877484,14.2106554 8.65236835,14.4137632 L7.91493864,15.2175189 L8.65213417,16.0210194 C8.83854066,16.2241272 8.83854066,16.5530291 8.65213417,16.7558817 C8.55893092,16.8574356 8.43692366,16.9082126 8.31491639,16.9082126" id="Fill-14" fill="#3CAEB3"></path>
                    <path d="M7.24800383,7.23111746 C7.85564524,6.6225314 8.66003554,6.30364737 9.47664918,6.30364737 C9.96440776,6.30364737 10.4566326,6.41755133 10.9133627,6.65147807 C11.0579272,6.72537444 11.0981233,6.85457543 11.1091713,6.92494172 C11.1289167,7.0499066 11.0891908,7.1725181 11.0005715,7.26147616 L6.93419289,11.3323662 C6.53787435,10.7939111 6.32396576,10.1455528 6.32396576,9.46401171 C6.32396576,8.62055756 6.65188057,7.82770124 7.24800383,7.23111746 Z M15.9503221,7.53988192 C15.8316146,7.13957068 15.519214,6.83904307 15.1149033,6.73643536 C14.7115328,6.634063 14.2954689,6.74867298 14.0014034,7.04284644 L12.6805766,8.36450897 C12.5656302,8.47958963 12.5169718,8.64526813 12.5512912,8.80459247 C12.7783634,9.8591455 12.4593811,10.9438219 11.6982426,11.7058488 C10.5842725,12.8213546 8.83868446,12.9225503 7.60553674,12.016496 L11.6775569,7.93925182 C11.981025,7.6356648 12.1222987,7.20052342 12.0550703,6.7755016 C11.988077,6.34953843 11.7309166,5.99300019 11.3494071,5.79790435 C9.75661085,4.98245551 7.8361349,5.28604252 6.57078336,6.55310646 C5.0818856,8.04350689 4.97540144,10.4016014 6.25109581,12.0160253 L5.35432521,12.9140781 C5.24690079,13.0216279 5.12208161,13.0293941 5.05673371,13.0237459 C4.94037684,13.0143324 4.83342255,12.953615 4.7638435,12.8566554 C3.09300591,10.5357445 3.34946114,7.38079292 5.37313036,5.35476144 C6.37591499,4.35104159 7.70637936,3.75045705 9.11982146,3.6633817 C9.38379875,3.64737867 9.58454373,3.41980608 9.56832429,3.15552064 C9.55210485,2.8912352 9.32244695,2.6879025 9.06105536,2.70649426 C7.41419434,2.80768994 5.86417984,3.5073521 4.69614496,4.67675045 C2.3382142,7.03719831 2.04015257,10.7129546 3.98695573,13.4172324 C4.22131492,13.7427059 4.58331406,13.9474506 4.98010272,13.9794567 C5.01606757,13.9825161 5.05179736,13.9839281 5.08776221,13.9839281 C5.44059384,13.9839281 5.77979173,13.8441369 6.03154568,13.5920891 L6.92126434,12.7013318 C8.53333584,13.9780447 10.8872705,13.8735542 12.3754631,12.3836245 C13.3044375,11.4535657 13.7280235,10.154731 13.5350356,8.86507454 L14.6786238,7.72085744 C14.752199,7.6471964 14.8358819,7.65472724 14.8793688,7.66555283 C14.9235609,7.67684909 15.0020724,7.71097321 15.0321607,7.8128749 C15.6405073,9.86196957 15.0812891,12.072742 13.5726459,13.5824402 C12.5710366,14.5859247 11.2403372,15.1865092 9.82618991,15.2740553 C9.56221261,15.2902936 9.36146764,15.5176309 9.37768708,15.7819163 C9.39343639,16.0360822 9.60428914,16.2318841 9.85510283,16.2318841 C9.86497553,16.2318841 9.8750833,16.2316487 9.88519107,16.2309427 C11.5327573,16.1292764 13.0827718,15.4291435 14.2501015,14.2604512 C16.0072077,12.5017646 16.6588061,9.92645239 15.9503221,7.53988192 L15.9503221,7.53988192 Z" id="Fill-15" fill="#FFFFFE"></path>
                </g>
            </g>
        </g>
    </g>
</svg>